<?xml version="1.0" standalone="no"?><!DOCTYPE svg PUBLIC "-//W3C//DTD SVG 1.1//EN"
        "http://www.w3.org/Graphics/SVG/1.1/DTD/svg11.dtd">
<svg t="1752822004791" class="icon" viewBox="0 0 1024 1024" version="1.1" xmlns="http://www.w3.org/2000/svg" p-id="2547"
     xmlns:xlink="http://www.w3.org/1999/xlink" width="256" height="256">
    <path d="M190.650077 332.090788v295.486667s139.221951-83.272497 140.354089-82.810105c3.534771 1.442808 54.922076 39.986086 54.922077 39.986086L492.98954 653.269843s21.414899 11.132092 51.388389-3.427843l228.679666-134.461841 1.709406 91.63999s3.427843 42.821851-23.121776 61.667222c0 0-90.789621 76.229686-192.707361 119.052982 0 0-44.78196 11.944891-83.504055-0.572571-9.338516-3.010968-19.68707-6.554409-29.551195-12.277958l-121.623594-68.521103-5.138694-4.28074-144.956698 82.6461s-17.98525 10.919319-36.759456 9.467119c-22.005894-1.705432-51.900271-11.998355-60.878627-24.24091-7.064847-9.63582-14.130777-19.266943-15.416083-33.400972-0.788234-8.641315-2.353504-32.761931-2.353504-32.761931l-0.857954-365.70995s5.996649-71.090631 59.955287-117.340325c0 0 85.643341-65.942183 312.611073-186.710712 0 0 94.215658-40.257019 155.023481-6.854965l223.542056 128.471695s18.841036 8.567621 5.990507 25.694555L731.947679 234.447286s-18.850068 13.700897-35.11977 2.569889L534.848315 150.570067s-30.993281-9.15392-58.133535 7.652229c0-0.000361-228.684001 125.055411-286.064703 173.868492z"
          p-id="2548"></path>
    <path d="M833.967289 692.168224v-295.482332s-139.221951 83.269968-140.354089 82.807938c-3.534771-1.445337-54.919548-39.986448-54.919548-39.986448l-107.064381-68.51749s-21.41526-11.130286-51.390557 3.427843l-228.678582 134.464008-1.71049-91.641435s-3.428205-42.822574 23.123583-61.667222c0 0 90.788899-76.230409 192.707361-119.051176 0 0 44.779793-11.948142 83.501887 0.566069 9.338516 3.016387 19.689237 6.559828 29.555891 12.280125l121.619981 68.522187 5.137611 4.28074 144.954531-82.648268s17.988501-10.920042 36.763068-9.464951c22.006978 1.706155 51.89991 11.999438 60.878627 24.238381 7.064847 9.63582 14.129332 19.271639 15.417167 33.4035 0.786067 8.642399 2.353865 32.760486 2.353865 32.760487l0.856871 365.712479s-5.998816 71.087379-59.955288 117.339241c0 0-85.643341 65.936403-312.61324 186.708545 0 0-94.214575 40.257019-155.022397 6.856048l-223.539889-128.476029s-18.838508-8.561119-5.992313-25.692389l83.073451-53.095266s18.851151-13.703426 35.120854-2.570972l161.979594 86.447469s30.993281 9.151753 58.133535-7.655119c-0.001084 0.000722 228.683279-125.051798 286.062897-173.865963z"
          p-id="2549"></path>
</svg>